<mxfile host="65bd71144e">
    <diagram id="4cYwH_F_Ig9F27OpJTJf" name="第 1 页">
        <mxGraphModel dx="750" dy="659" grid="1" gridSize="10" guides="1" tooltips="1" connect="1" arrows="1" fold="1" page="1" pageScale="1" pageWidth="827" pageHeight="1169" math="0" shadow="0">
            <root>
                <mxCell id="0"/>
                <mxCell id="1" parent="0"/>
                <mxCell id="4" value="&lt;font style=&quot;font-size: 15px&quot;&gt;int a,b;&lt;br&gt;&lt;br&gt;int foo(int par1, int par2){&lt;br&gt;&lt;span style=&quot;white-space: pre&quot;&gt;&#9;&lt;/span&gt;int a;&lt;br&gt;}&lt;br&gt;&lt;br&gt;int main(){&lt;br&gt;&lt;span style=&quot;white-space: pre&quot;&gt;&#9;&lt;/span&gt;int a, b;&lt;br&gt;&lt;span style=&quot;white-space: pre&quot;&gt;&#9;&lt;/span&gt;{&lt;br&gt;&lt;span style=&quot;white-space: pre&quot;&gt;&#9;&lt;/span&gt;&lt;span style=&quot;white-space: pre&quot;&gt;&#9;&lt;/span&gt;int a, c;&lt;br&gt;&lt;span style=&quot;white-space: pre&quot;&gt;&#9;&lt;/span&gt;}&lt;br&gt;&lt;span style=&quot;white-space: pre&quot;&gt;&#9;&lt;/span&gt;{&lt;br&gt;&lt;span style=&quot;white-space: pre&quot;&gt;&#9;&lt;/span&gt;&lt;span style=&quot;white-space: pre&quot;&gt;&#9;&lt;/span&gt;int c, d;&lt;br&gt;&lt;span style=&quot;white-space: pre&quot;&gt;&#9;&lt;/span&gt;}&lt;br&gt;}&lt;/font&gt;" style="text;html=1;strokeColor=none;fillColor=none;align=left;verticalAlign=middle;whiteSpace=wrap;rounded=0;" vertex="1" parent="1">
                    <mxGeometry x="430" y="160" width="230" height="310" as="geometry"/>
                </mxCell>
                <mxCell id="6" value="" style="group" vertex="1" connectable="0" parent="1">
                    <mxGeometry x="150" y="170" width="90" height="70" as="geometry"/>
                </mxCell>
                <mxCell id="2" value="a" style="rounded=0;whiteSpace=wrap;html=1;" vertex="1" parent="6">
                    <mxGeometry y="23.333333333333332" width="90" height="23.333333333333332" as="geometry"/>
                </mxCell>
                <mxCell id="3" value="global" style="rounded=0;whiteSpace=wrap;html=1;fillColor=#f5f5f5;fontColor=#333333;strokeColor=#666666;" vertex="1" parent="6">
                    <mxGeometry width="90" height="23.333333333333332" as="geometry"/>
                </mxCell>
                <mxCell id="5" value="b" style="rounded=0;whiteSpace=wrap;html=1;" vertex="1" parent="6">
                    <mxGeometry y="46.666666666666664" width="90" height="23.333333333333332" as="geometry"/>
                </mxCell>
                <mxCell id="7" value="" style="group" vertex="1" connectable="0" parent="1">
                    <mxGeometry x="70" y="260" width="90" height="70" as="geometry"/>
                </mxCell>
                <mxCell id="8" value="par1" style="rounded=0;whiteSpace=wrap;html=1;" vertex="1" parent="7">
                    <mxGeometry y="23.333333333333332" width="90" height="23.333333333333332" as="geometry"/>
                </mxCell>
                <mxCell id="9" value="foo_1" style="rounded=0;whiteSpace=wrap;html=1;fillColor=#f5f5f5;fontColor=#333333;strokeColor=#666666;" vertex="1" parent="7">
                    <mxGeometry width="90" height="23.333333333333332" as="geometry"/>
                </mxCell>
                <mxCell id="10" value="par2" style="rounded=0;whiteSpace=wrap;html=1;" vertex="1" parent="7">
                    <mxGeometry y="46.666666666666664" width="90" height="23.333333333333332" as="geometry"/>
                </mxCell>
                <mxCell id="16" value="a" style="rounded=0;whiteSpace=wrap;html=1;" vertex="1" parent="1">
                    <mxGeometry x="70" y="329.99666666666667" width="90" height="23.333333333333332" as="geometry"/>
                </mxCell>
                <mxCell id="17" value="" style="group" vertex="1" connectable="0" parent="1">
                    <mxGeometry x="230" y="270" width="90" height="70" as="geometry"/>
                </mxCell>
                <mxCell id="18" value="a" style="rounded=0;whiteSpace=wrap;html=1;" vertex="1" parent="17">
                    <mxGeometry y="23.333333333333332" width="90" height="23.333333333333332" as="geometry"/>
                </mxCell>
                <mxCell id="19" value="main_1" style="rounded=0;whiteSpace=wrap;html=1;fillColor=#f5f5f5;fontColor=#333333;strokeColor=#666666;" vertex="1" parent="17">
                    <mxGeometry width="90" height="23.333333333333332" as="geometry"/>
                </mxCell>
                <mxCell id="20" value="b" style="rounded=0;whiteSpace=wrap;html=1;" vertex="1" parent="17">
                    <mxGeometry y="46.666666666666664" width="90" height="23.333333333333332" as="geometry"/>
                </mxCell>
                <mxCell id="21" value="" style="group" vertex="1" connectable="0" parent="1">
                    <mxGeometry x="190" y="390" width="90" height="70" as="geometry"/>
                </mxCell>
                <mxCell id="22" value="a" style="rounded=0;whiteSpace=wrap;html=1;" vertex="1" parent="21">
                    <mxGeometry y="23.333333333333332" width="90" height="23.333333333333332" as="geometry"/>
                </mxCell>
                <mxCell id="23" value="main_2" style="rounded=0;whiteSpace=wrap;html=1;fillColor=#f5f5f5;fontColor=#333333;strokeColor=#666666;" vertex="1" parent="21">
                    <mxGeometry width="90" height="23.333333333333332" as="geometry"/>
                </mxCell>
                <mxCell id="24" value="c" style="rounded=0;whiteSpace=wrap;html=1;" vertex="1" parent="21">
                    <mxGeometry y="46.666666666666664" width="90" height="23.333333333333332" as="geometry"/>
                </mxCell>
                <mxCell id="25" value="" style="endArrow=classic;html=1;exitX=0.5;exitY=0;exitDx=0;exitDy=0;" edge="1" parent="1" source="9">
                    <mxGeometry width="50" height="50" relative="1" as="geometry">
                        <mxPoint x="360" y="280" as="sourcePoint"/>
                        <mxPoint x="190" y="240" as="targetPoint"/>
                    </mxGeometry>
                </mxCell>
                <mxCell id="26" value="" style="endArrow=classic;html=1;exitX=0.5;exitY=0;exitDx=0;exitDy=0;entryX=0.5;entryY=1;entryDx=0;entryDy=0;" edge="1" parent="1" source="19" target="5">
                    <mxGeometry width="50" height="50" relative="1" as="geometry">
                        <mxPoint x="360" y="280" as="sourcePoint"/>
                        <mxPoint x="410" y="230" as="targetPoint"/>
                    </mxGeometry>
                </mxCell>
                <mxCell id="27" value="" style="endArrow=classic;html=1;exitX=0.5;exitY=0;exitDx=0;exitDy=0;" edge="1" parent="1" source="23">
                    <mxGeometry width="50" height="50" relative="1" as="geometry">
                        <mxPoint x="360" y="280" as="sourcePoint"/>
                        <mxPoint x="280" y="340" as="targetPoint"/>
                    </mxGeometry>
                </mxCell>
                <mxCell id="28" value="" style="group" vertex="1" connectable="0" parent="1">
                    <mxGeometry x="300" y="390" width="90" height="70" as="geometry"/>
                </mxCell>
                <mxCell id="29" value="c" style="rounded=0;whiteSpace=wrap;html=1;" vertex="1" parent="28">
                    <mxGeometry y="23.333333333333332" width="90" height="23.333333333333332" as="geometry"/>
                </mxCell>
                <mxCell id="30" value="main_2" style="rounded=0;whiteSpace=wrap;html=1;fillColor=#f5f5f5;fontColor=#333333;strokeColor=#666666;" vertex="1" parent="28">
                    <mxGeometry width="90" height="23.333333333333332" as="geometry"/>
                </mxCell>
                <mxCell id="31" value="d" style="rounded=0;whiteSpace=wrap;html=1;" vertex="1" parent="28">
                    <mxGeometry y="46.666666666666664" width="90" height="23.333333333333332" as="geometry"/>
                </mxCell>
                <mxCell id="32" value="" style="edgeStyle=none;html=1;" edge="1" parent="1" source="30" target="20">
                    <mxGeometry relative="1" as="geometry"/>
                </mxCell>
                <mxCell id="33" value="" style="rounded=0;whiteSpace=wrap;html=1;fontSize=15;fillColor=#d5e8d4;strokeColor=#82b366;opacity=20;" vertex="1" parent="1">
                    <mxGeometry x="414" y="170" width="210" height="290" as="geometry"/>
                </mxCell>
                <mxCell id="34" value="" style="rounded=0;whiteSpace=wrap;html=1;fontSize=15;fillColor=#dae8fc;strokeColor=#6c8ebf;opacity=20;" vertex="1" parent="1">
                    <mxGeometry x="429" y="210" width="180" height="70" as="geometry"/>
                </mxCell>
                <mxCell id="35" value="" style="rounded=0;whiteSpace=wrap;html=1;fontSize=15;fillColor=#dae8fc;strokeColor=#6c8ebf;opacity=20;" vertex="1" parent="1">
                    <mxGeometry x="429" y="290" width="181" height="160" as="geometry"/>
                </mxCell>
                <mxCell id="36" value="" style="rounded=0;whiteSpace=wrap;html=1;fontSize=15;fillColor=#f8cecc;strokeColor=#b85450;opacity=20;" vertex="1" parent="1">
                    <mxGeometry x="459" y="320" width="131" height="60" as="geometry"/>
                </mxCell>
                <mxCell id="37" value="" style="rounded=0;whiteSpace=wrap;html=1;fontSize=15;fillColor=#f8cecc;strokeColor=#b85450;opacity=20;" vertex="1" parent="1">
                    <mxGeometry x="459" y="380" width="131" height="60" as="geometry"/>
                </mxCell>
                <mxCell id="38" value="" style="endArrow=classic;html=1;fontSize=15;entryX=1;entryY=0.5;entryDx=0;entryDy=0;exitX=0.029;exitY=0.04;exitDx=0;exitDy=0;exitPerimeter=0;fillColor=#d5e8d4;strokeColor=#82b366;" edge="1" parent="1" source="33" target="3">
                    <mxGeometry width="50" height="50" relative="1" as="geometry">
                        <mxPoint x="410" y="182" as="sourcePoint"/>
                        <mxPoint x="410" y="180" as="targetPoint"/>
                    </mxGeometry>
                </mxCell>
                <mxCell id="39" value="" style="endArrow=classic;html=1;fontSize=15;entryX=1;entryY=0.429;entryDx=0;entryDy=0;exitX=0;exitY=0;exitDx=0;exitDy=0;entryPerimeter=0;fillColor=#dae8fc;strokeColor=#6c8ebf;" edge="1" parent="1" source="34" target="9">
                    <mxGeometry width="50" height="50" relative="1" as="geometry">
                        <mxPoint x="350.0899999999999" y="270" as="sourcePoint"/>
                        <mxPoint x="170" y="270.0666666666666" as="targetPoint"/>
                        <Array as="points"/>
                    </mxGeometry>
                </mxCell>
                <mxCell id="40" value="" style="endArrow=classic;html=1;fontSize=15;exitX=0;exitY=0;exitDx=0;exitDy=0;fillColor=#dae8fc;strokeColor=#6c8ebf;" edge="1" parent="1" source="35">
                    <mxGeometry width="50" height="50" relative="1" as="geometry">
                        <mxPoint x="439" y="220" as="sourcePoint"/>
                        <mxPoint x="320" y="280" as="targetPoint"/>
                        <Array as="points"/>
                    </mxGeometry>
                </mxCell>
                <mxCell id="41" value="" style="endArrow=classic;html=1;fontSize=15;exitX=0;exitY=0;exitDx=0;exitDy=0;fillColor=#f8cecc;strokeColor=#b85450;entryX=1;entryY=0.25;entryDx=0;entryDy=0;" edge="1" parent="1" source="36" target="23">
                    <mxGeometry width="50" height="50" relative="1" as="geometry">
                        <mxPoint x="439" y="300" as="sourcePoint"/>
                        <mxPoint x="330" y="290" as="targetPoint"/>
                        <Array as="points"/>
                    </mxGeometry>
                </mxCell>
                <mxCell id="42" value="" style="endArrow=classic;html=1;fontSize=15;exitX=0;exitY=0.25;exitDx=0;exitDy=0;fillColor=#f8cecc;strokeColor=#b85450;entryX=1;entryY=0.5;entryDx=0;entryDy=0;" edge="1" parent="1" source="37" target="30">
                    <mxGeometry width="50" height="50" relative="1" as="geometry">
                        <mxPoint x="469" y="330" as="sourcePoint"/>
                        <mxPoint x="290" y="405.83333333333326" as="targetPoint"/>
                        <Array as="points"/>
                    </mxGeometry>
                </mxCell>
            </root>
        </mxGraphModel>
    </diagram>
</mxfile>